<svg width="911" height="135" viewBox="0 0 911 135" fill="none" xmlns="http://www.w3.org/2000/svg">
<path d="M0 82.9671C0 53.8937 17.8242 31.7227 45.9129 31.7227C51.9889 31.4018 58.0349 32.7752 63.3833 35.6911C68.7317 38.607 73.1745 42.952 76.221 48.2464V34.3024H106.737V131.423H76.221V117.479C72.9885 122.687 68.445 126.946 63.0499 129.823C57.6549 132.7 51.5997 134.094 45.4968 133.863C16.6452 134.212 0 112.18 0 82.9671ZM77.4694 82.9671C77.4694 69.023 69.6323 57.5192 54.3743 57.5192C39.1162 57.5192 31.2791 68.1864 31.2791 82.9671C31.2791 97.7478 40.0871 108.554 54.3743 108.554C68.6614 108.554 77.4694 97.0506 77.4694 82.9671Z" fill="black"/>
<path d="M111.869 34.3023H142.594V48.2463C145.66 42.7339 150.24 38.225 155.786 35.2579C161.333 32.2909 167.611 30.991 173.873 31.5134C197.384 31.5134 209.244 44.83 209.244 71.254V131.423H178.311V81.5029C178.311 65.1883 173.665 57.7283 161.25 57.7283C148.836 57.7283 142.594 65.8158 142.594 80.7359V131.423H111.869V34.3023Z" fill="black"/>
<path d="M296.146 83.1763C296.146 53.4755 316.952 31.9319 349.896 31.9319C382.839 31.9319 403.507 53.4755 403.507 83.1763C403.507 112.877 382.7 134.421 349.896 134.421C317.091 134.421 296.146 112.807 296.146 83.1763ZM372.991 83.1763C372.991 68.4653 364.391 57.9375 349.896 57.9375C335.4 57.9375 326.8 68.6745 326.8 83.1763C326.8 97.6781 335.262 108.415 349.896 108.415C364.529 108.415 372.991 97.8873 372.991 83.1763Z" fill="black"/>
<path d="M471.197 102.559H501.713C501.713 109.531 508.163 113.853 517.596 113.853C524.531 113.853 528.831 110.576 528.831 104.929C528.831 100.537 526.612 97.957 518.359 95.8654L498.107 90.8455C482.641 87.0109 473.833 76.9014 473.833 62.3996C473.833 43.9935 490.27 31.9319 515.446 31.9319C542.771 31.9319 558.584 42.5991 558.584 61.9813H528.276C528.276 55.0093 523.283 51.4536 515.03 51.4536C508.094 51.4536 504.002 54.7304 504.002 59.332C504.002 63.9335 506.846 66.304 514.683 68.6048L535.489 74.2521C550.747 78.2959 559.971 87.5687 559.971 102.14C559.971 122.289 543.326 134.212 517.596 134.212C489.507 134.421 471.197 121.522 471.197 102.559Z" fill="black"/>
<path d="M631.615 107.16V131.771C624.741 132.926 617.778 133.463 610.809 133.375C596.313 133.375 576.131 130.168 576.131 97.6781V61.7024H560.873V37.3003H576.131V8.01782H606.855V37.6489H628.702V61.7024H606.855V90.985C606.855 104.929 612.681 107.509 620.31 107.509C624.082 107.648 627.859 107.531 631.615 107.16Z" fill="black"/>
<path d="M631.061 83.1763C631.061 53.4755 651.867 31.9319 684.811 31.9319C717.754 31.9319 738.422 53.4755 738.422 83.1763C738.422 112.877 717.615 134.421 684.811 134.421C652.006 134.421 631.061 112.807 631.061 83.1763ZM707.906 83.1763C707.906 68.4653 699.306 57.9375 684.811 57.9375C670.315 57.9375 661.785 68.4653 661.785 83.1763C661.785 97.8873 670.177 108.415 684.811 108.415C699.444 108.415 707.906 97.8873 707.906 83.1763Z" fill="black"/>
<path d="M742.098 34.5115H772.822V54.7304C774.019 48.5044 777.343 42.8946 782.218 38.8715C787.094 34.8484 793.216 32.6649 799.524 32.6988C802.231 32.6012 804.939 32.8827 807.569 33.5354V62.3996C804.512 61.9754 801.43 61.7657 798.345 61.7722C781.699 61.7722 772.822 72.6485 772.822 94.2618V131.771H742.098V34.5115Z" fill="black"/>
<path d="M909.52 91.6124H838.432C838.986 104.371 847.448 111.204 861.111 111.204C870.543 111.204 876.577 108.554 879.143 102.559H909.243C906.261 121.662 886.772 134.421 861.111 134.421C828.167 134.421 807.916 115.666 807.916 83.1763C807.916 50.6867 828.722 31.9319 860.07 31.9319C890.17 31.9319 910.699 50.6866 910.699 78.0867C910.608 82.6167 910.214 87.1354 909.52 91.6124ZM880.045 72.4394C880.283 69.6839 879.898 66.91 878.918 64.3254C877.939 61.7408 876.39 59.4124 874.389 57.5145C872.388 55.6166 869.985 54.1984 867.361 53.3661C864.738 52.5339 861.961 52.309 859.238 52.7085C856.554 52.5044 853.856 52.8657 851.319 53.7691C848.781 54.6726 846.459 56.0984 844.501 57.9554C842.543 59.8124 840.991 62.0598 839.946 64.5538C838.901 67.0478 838.385 69.7335 838.432 72.4394H880.045Z" fill="black"/>
<path fill-rule="evenodd" clip-rule="evenodd" d="M437.907 55.4014C442.577 37.7889 455.106 28.7564 486.455 33.8143C475.175 40.4079 471.143 48.4961 467.68 55.4435C462.814 65.2071 459.07 72.7178 437.907 70.6607V131.771H407.252V34.5115H437.907V55.4014Z" fill="black"/>
<path d="M275.27 131.423L244.407 89.5905V131.423H214.237V0H244.615V75.6465L276.31 34.7904H312.305L273.883 80.6663L312.721 131.423H275.27Z" fill="black"/>
</svg>
